<svg width="42" height="40" viewBox="0 0 42 40" fill="none" xmlns="http://www.w3.org/2000/svg">
<path d="M40.2562 2.47333C39.0378 0.941632 37.158 0.0713478 34.9649 0.00172506C32.0407 -0.102709 27.1323 4.56202 25.1481 6.54626C24.0341 7.69504 18.3947 13.5085 18.5339 16.2238C18.6035 17.6511 18.9516 18.7302 19.5783 19.4961C19.2649 20.436 18.9865 21.4803 18.882 22.5943C18.8124 23.2209 18.6732 23.7431 18.4643 24.1956C15.6098 22.5943 13.1381 21.3063 13.1033 21.2715C12.9641 21.2019 12.8248 21.167 12.6856 21.1322C5.6537 20.4012 0.60605 36.5537 0.049068 38.3987C-0.0553661 38.712 0.0142566 39.0601 0.188314 39.3386C0.36237 39.6171 0.675673 39.7911 0.988975 39.8608C1.82445 39.9652 2.65992 40 3.53021 40C8.29936 40 13.4514 38.5379 16.3408 37.5632C20.9011 36.0315 25.3221 33.908 26.8538 32.4807C27.2019 32.1674 27.6545 31.6801 27.6197 30.9839C27.5849 30.2876 27.1323 29.5914 24.9392 28.0597C23.8252 27.2938 22.3283 26.3539 20.4833 25.2748C20.7966 24.5786 21.0403 23.7431 21.1448 22.8032C21.2492 22.0373 21.3884 21.3063 21.5973 20.6101C21.8758 20.6797 22.1543 20.6797 22.4676 20.6797C23.129 20.6797 23.8252 20.5752 24.6259 20.3316C24.7303 20.2968 24.8348 20.2619 24.9392 20.1923C24.974 20.1575 28.9077 17.477 32.8066 14.5529C41.0569 8.39127 41.2657 7.20768 41.3702 6.54626C41.6835 5.22343 41.2657 3.69173 40.2562 2.47333ZM27.4108 7.52098C31.1008 3.9006 33.8509 2.26446 34.8256 2.26446H34.8604C35.9048 2.29928 36.8447 2.57777 37.5757 3.09994C37.9238 3.34362 38.2023 3.5873 38.4808 3.9006C39.0378 4.59683 39.2815 5.4323 39.1771 6.12853C38.5505 7.52098 30.7875 13.4737 23.8252 18.2429C23.3727 18.3473 22.8853 18.4518 22.4328 18.4518C22.8505 17.5118 23.2334 16.9201 23.2334 16.8852C23.5816 16.3631 23.4075 15.6668 22.8853 15.3187C22.3632 14.9706 21.6669 15.1447 21.3188 15.6668C21.284 15.7017 21.11 16.015 20.8315 16.5023C20.8315 16.3631 20.7966 16.2238 20.7966 16.0846C20.7966 15.8409 20.9707 15.3884 21.3536 14.7617C22.3283 13.1604 24.4518 10.4103 27.4108 7.52098ZM12.2679 23.395H12.3027C13.3122 23.9171 14.3565 24.4741 15.4009 25.0659C16.0275 25.414 16.6193 25.7273 17.2111 26.0754C16.5497 26.7021 15.8186 27.0154 15.4009 27.1894C14.8091 27.3983 14.4958 28.0597 14.7047 28.6515C14.8787 29.104 15.2965 29.3825 15.7838 29.3825C15.9231 29.3825 16.0275 29.3477 16.1667 29.3129C16.7585 29.104 18.0814 28.5122 19.2301 27.2242C21.9802 28.8255 24.2082 30.2528 25.0784 31.0535C22.6765 32.9681 10.9102 38.1202 2.65992 37.7373C3.18209 36.2056 3.8087 34.5346 4.50492 32.8985C6.66323 28.0249 9.55257 23.395 12.2679 23.395Z" fill="#FFDB40"/>
</svg>
