<svg width="21" height="40" viewBox="0 0 21 40" fill="none" xmlns="http://www.w3.org/2000/svg">
<path d="M20.2728 9.01575C20.1842 8.92299 20.0779 8.8492 19.9603 8.79883C19.8427 8.74845 19.7162 8.72252 19.5883 8.7226H14.9425V0.960463C14.9425 0.705732 14.842 0.461435 14.6631 0.281313C14.4842 0.101191 14.2415 0 13.9885 0C13.7355 0 13.4929 0.101191 13.314 0.281313C13.1351 0.461435 13.0346 0.705732 13.0346 0.960463V8.7226H7.50243V0.960463C7.50243 0.705732 7.40192 0.461435 7.22302 0.281313C7.04412 0.101191 6.80149 0 6.54848 0C6.29548 0 6.05284 0.101191 5.87394 0.281313C5.69504 0.461435 5.59453 0.705732 5.59453 0.960463V8.7226H0.953769C0.819411 8.72244 0.686537 8.7509 0.563876 8.80611C0.441216 8.86132 0.331544 8.94202 0.242056 9.04293C0.152568 9.14384 0.08529 9.26266 0.0446425 9.39159C0.0039951 9.52053 -0.00910479 9.65667 0.0062043 9.79106C0.0457925 10.1472 0.995912 18.5587 1.86813 21.3063C2.88976 24.5207 5.22036 25.3668 6.30967 25.3668H9.6734V27.6181C9.6745 27.828 9.74305 28.0319 9.86879 28.1993C9.88283 28.2173 11.2544 30.0662 11.2544 32.0669C11.2544 32.7856 11.0424 33.287 10.6044 33.5982C10.2368 33.8374 9.80835 33.9642 9.37074 33.9634C9.03488 33.9634 8.049 33.8014 7.53946 33.0633C6.9086 32.1517 7.24064 30.6872 7.63141 29.6188C7.70143 29.422 7.70582 29.2077 7.6439 29.0082C7.58198 28.8088 7.45713 28.6351 7.2883 28.5135C7.11947 28.3919 6.91585 28.3291 6.70836 28.3346C6.50087 28.3401 6.30082 28.4136 6.13855 28.5439C4.45286 29.8991 1.80428 33.3475 3.85393 36.6956C5.18332 38.866 7.38494 40 10.1829 40C10.9939 39.9948 11.8024 39.9087 12.5965 39.7428C14.9961 39.2594 17.7047 37.0723 17.4148 32.4976C17.1811 28.7393 16.1544 27.4176 15.6027 26.7117C15.5363 26.6255 15.4546 26.5201 15.4252 26.4699C15.3514 26.0983 15.3087 25.7211 15.2975 25.3423C16.4813 25.1675 18.4416 24.1852 19.3559 21.3115C20.2409 18.5278 20.5282 10.0778 20.5397 9.72035C20.5451 9.59082 20.5241 9.46155 20.4782 9.34041C20.4324 9.21928 20.3625 9.10882 20.2728 9.01575ZM15.5107 32.6159C15.7662 36.8139 13.0588 37.6895 12.2224 37.8592C10.0233 38.3015 7.06952 38.2835 5.47832 35.685C4.82065 34.6088 4.94324 33.5249 5.34296 32.5992C5.43476 33.1617 5.64886 33.6969 5.96998 34.1665C6.90988 35.5217 8.54705 35.883 9.36563 35.883C11.2531 35.883 13.1572 34.7027 13.1572 32.0669C13.1572 29.9814 12.1138 28.1376 11.6247 27.3893C11.6094 27.3635 11.5915 27.3365 11.5762 27.3134V25.3668H13.3832C13.4011 25.8221 13.4493 26.2757 13.5275 26.7245C13.5492 26.8351 13.5722 26.9392 13.599 27.0318C13.7081 27.3474 13.8778 27.6384 14.0983 27.8881C14.5542 28.4732 15.3141 29.4516 15.5107 32.6159ZM18.5756 10.929C18.5756 10.9444 18.5756 10.9611 18.5756 10.9765C18.5756 11.0601 18.568 11.145 18.5641 11.2337V11.2723C18.5641 11.3661 18.5552 11.4613 18.5501 11.559C18.5501 11.6876 18.536 11.8161 18.5297 11.9447C18.5297 11.9717 18.5297 12 18.5297 12.027C18.5297 12.135 18.5182 12.2443 18.5118 12.3562C18.5118 12.3857 18.5118 12.4166 18.5118 12.4474C18.5041 12.5657 18.4977 12.6853 18.4901 12.8062V12.8666C18.4811 13.0106 18.4722 13.1546 18.4633 13.3012V13.3102C18.4626 13.32 18.4626 13.3299 18.4633 13.3398C18.4543 13.4851 18.4441 13.6316 18.4339 13.7782C18.4339 13.8232 18.4339 13.8669 18.425 13.9068C18.4135 14.0675 18.402 14.2308 18.3905 14.3941V14.4031C18.3828 14.4944 18.3751 14.5857 18.3688 14.677C18.3471 14.9547 18.3266 15.2311 18.3036 15.5088C18.2411 16.2494 18.1759 16.9797 18.0916 17.6625C18.0635 17.9016 18.0355 18.1356 18.0048 18.3607C17.9959 18.4262 17.9882 18.4892 17.9793 18.5535C17.9793 18.5767 17.9793 18.5998 17.969 18.623C17.9435 18.8042 17.918 18.9778 17.8911 19.1463L17.872 19.2607C17.872 19.3018 17.8592 19.343 17.8516 19.3893C17.8439 19.4356 17.835 19.4883 17.826 19.5371C17.8171 19.586 17.812 19.6168 17.8043 19.6554C17.7966 19.694 17.7826 19.7711 17.7724 19.8264C17.7724 19.8534 17.7609 19.8804 17.7558 19.9074C17.7456 19.9589 17.7353 20.0077 17.7239 20.0566C17.7239 20.0771 17.7149 20.099 17.7111 20.1183C17.6958 20.1852 17.6817 20.2469 17.6664 20.3099L17.6549 20.3549C17.6421 20.4037 17.6306 20.4513 17.6179 20.4976C17.6179 20.5143 17.6089 20.531 17.6038 20.5464C17.5885 20.6043 17.5719 20.6596 17.5553 20.711C17.3926 21.2465 17.1441 21.7516 16.8197 22.2064C16.6525 22.4353 16.4597 22.6442 16.245 22.8287C15.6997 23.2954 15.1736 23.4368 14.931 23.4368H6.30967H6.23561H6.22539L6.13983 23.424H6.12451L6.02361 23.4008C5.9853 23.3906 5.94571 23.379 5.90357 23.3648C5.86143 23.3507 5.81801 23.334 5.77587 23.316H5.76821C5.72223 23.298 5.67626 23.2774 5.62774 23.253C5.1348 23.0138 4.51671 22.5175 4.04165 21.5815C4.01101 21.5211 3.98163 21.4593 3.95226 21.395L3.9446 21.3783C3.91906 21.3218 3.89351 21.2639 3.86925 21.2035L3.85393 21.1675L3.7888 20.9978C3.7888 20.981 3.7773 20.9656 3.77092 20.9502C3.74538 20.8782 3.71984 20.8049 3.69557 20.729C3.6777 20.6725 3.65981 20.6133 3.64194 20.5516C3.64194 20.5374 3.633 20.5233 3.62917 20.5092C3.61257 20.4474 3.59469 20.3806 3.57681 20.3176C3.57681 20.3073 3.57042 20.2957 3.56787 20.2842C3.55255 20.225 3.53722 20.1646 3.52189 20.1016C3.52189 20.0849 3.51296 20.0669 3.50785 20.0501C3.49125 19.9807 3.47465 19.9087 3.45677 19.8354L3.44144 19.7699C3.42867 19.7107 3.41463 19.6503 3.40058 19.5886C3.40058 19.5654 3.39164 19.5436 3.38653 19.5204C3.36993 19.4471 3.35461 19.3725 3.338 19.2967C3.33162 19.262 3.32396 19.2273 3.31629 19.1925C3.30523 19.1368 3.29373 19.0803 3.28181 19.0228L3.25116 18.8698C3.24095 18.8158 3.23073 18.7605 3.21924 18.7052C3.20774 18.65 3.20264 18.6152 3.1937 18.5702C3.18476 18.5252 3.17582 18.4725 3.1656 18.4224L3.12346 18.1897C3.11707 18.1536 3.10941 18.1176 3.10303 18.0804L3.07238 17.9094L3.00342 17.5121L2.99575 17.4632C2.97532 17.341 2.95361 17.2163 2.93318 17.0916C2.93318 17.0775 2.93318 17.062 2.9268 17.0479C2.90381 16.9116 2.8821 16.7753 2.86039 16.6377C2.81442 16.3472 2.76887 16.054 2.72374 15.7583C2.70203 15.6194 2.6816 15.4793 2.66117 15.3404L2.65351 15.2851C2.63435 15.1565 2.61647 15.028 2.59732 14.9058L2.58966 14.8518C2.57093 14.7155 2.55177 14.5805 2.53219 14.4468V14.4314L2.50154 14.2102C2.50154 14.1806 2.49388 14.1511 2.48877 14.1202C2.47855 14.0482 2.46962 13.9762 2.4594 13.9042C2.4594 13.8798 2.4594 13.8554 2.44918 13.8309C2.41768 13.5969 2.38661 13.3681 2.35596 13.1443L2.34446 13.0543L2.31765 12.855C2.31765 12.828 2.31126 12.801 2.30743 12.774C2.28104 12.5709 2.2555 12.3742 2.23081 12.1839C2.23081 12.1401 2.21932 12.0964 2.21421 12.0553C2.2091 12.0141 2.20271 11.9653 2.1976 11.9203L2.17845 11.7737C2.17845 11.7364 2.16951 11.6991 2.1644 11.6618C2.15419 11.5808 2.14397 11.4998 2.13503 11.4227L2.12865 11.37C2.11971 11.3031 2.11204 11.2414 2.10311 11.1733L2.09544 11.1051C2.08778 11.0434 2.08012 10.983 2.07246 10.9238C2.07246 10.9084 2.07246 10.893 2.07246 10.8788C2.06352 10.8042 2.05458 10.731 2.04692 10.6628H18.5922C18.5884 10.7361 18.5833 10.8312 18.5795 10.929H18.5756Z" fill="#FFDB40"/>
</svg>
