<svg width="40" height="40" viewBox="0 0 40 40" fill="none" xmlns="http://www.w3.org/2000/svg">
<path d="M37.0151 27.013C35.136 24.9962 30.885 24.1711 28.0201 23.835C28.0509 23.8044 28.0509 23.8044 28.0818 23.7739C29.9916 21.696 30.3613 19.1597 30.4229 17.8151C31.2854 17.4179 31.8707 16.5623 31.8707 15.5539C31.8707 14.4843 31.193 13.5676 30.2073 13.2009C30.2073 11.4286 29.9608 7.66998 27.8353 5.34759C26.8496 4.27808 25.5866 3.63636 24.108 3.42246V2.50573C24.108 2.29183 24.0464 2.07792 23.9231 1.92513C23.8615 1.83346 22.5677 0 19.7029 0C16.8689 0 15.5443 1.83346 15.5135 1.89458C15.3903 2.07792 15.3287 2.26127 15.3287 2.47517V3.45302C13.85 3.66692 12.587 4.27808 11.6013 5.37815C9.44498 7.70054 9.19854 11.4591 9.22935 13.2315C8.27441 13.5676 7.5659 14.4843 7.5659 15.5844C7.5659 16.5928 8.15119 17.4484 9.01372 17.8457C9.07532 19.1902 9.44498 21.7265 11.3549 23.8044C11.3857 23.835 11.3857 23.835 11.4165 23.8655C8.55165 24.2017 4.30061 25.0267 2.42153 27.0435C-0.381683 30.0382 -0.0120281 38.1054 0.0495811 39.0222C0.0803857 39.5722 0.542454 40 1.09694 40H5.40958C5.44038 40 5.44038 40 5.47119 40C5.50199 40 5.50199 40 5.50199 40H9.22935H19.7029H30.1765H33.9346H33.9654C33.9962 40 33.9962 40 34.027 40H38.3397C38.8942 40 39.3562 39.5722 39.387 39.0222C39.4486 38.1054 39.8183 30.0382 37.0151 27.013ZM4.05418 37.9221H2.08268C2.05188 36.272 2.14429 33.7968 2.57556 31.6883C2.8528 30.3438 3.28406 29.152 3.93096 28.4492C4.02337 28.3575 4.11579 28.2659 4.2082 28.2047C4.11579 29.152 4.05418 30.3438 3.96176 31.5966C3.96176 31.7189 3.96176 31.8717 3.93096 31.9939C3.80774 35.0191 3.86935 36.822 4.05418 37.9221ZM7.99716 34.6524C7.96636 35.8747 7.99716 37.0054 8.05877 37.8915H6.14889C5.93326 36.8526 5.93326 34.4996 6.05648 31.78C6.14889 30.2521 6.2413 28.602 6.39533 27.013C7.01142 26.7991 7.65831 26.6157 8.36682 26.463C8.2436 27.9908 8.08958 30.4966 8.02797 32.9106C7.99716 33.4301 7.99716 33.9801 7.99716 34.4691C7.99716 34.4996 7.99716 34.5302 7.99716 34.5607C7.96636 34.6219 7.99716 34.6524 7.99716 34.6524ZM11.3241 12.4981C11.3549 11.5508 11.5089 10.4202 11.8169 9.32009C12.0942 8.3728 12.5254 7.45607 13.1415 6.78381C13.7268 6.14209 14.4661 5.74484 15.3287 5.59206V6.11154V6.84492C15.3287 7.42552 15.7907 7.88388 16.376 7.88388C16.9613 7.88388 17.4234 7.42552 17.4234 6.84492V5.04202V2.90298C17.6698 2.65852 18.2243 2.26127 19.0868 2.13904C19.2716 2.10848 19.4873 2.07792 19.7029 2.07792C19.9185 2.07792 20.1342 2.10848 20.319 2.13904C21.1815 2.26127 21.736 2.65852 21.9824 2.90298V5.04202V6.84492C21.9824 7.42552 22.4445 7.88388 23.0298 7.88388C23.6151 7.88388 24.0772 7.42552 24.0772 6.84492V6.11154V5.59206C24.9397 5.7754 25.679 6.17265 26.2643 6.78381C26.8804 7.45607 27.3116 8.3728 27.5889 9.32009C27.8969 10.4202 28.0509 11.5508 28.0818 12.4981C28.0818 12.712 28.0818 12.8953 28.0818 13.0787H19.7029H11.2933C11.2933 12.8953 11.2933 12.6814 11.3241 12.4981ZM9.66061 15.5539C9.66061 15.34 9.84544 15.1261 10.0919 15.1261H19.7029H29.3447C29.5604 15.1261 29.776 15.3094 29.776 15.5539C29.776 15.7678 29.5912 15.9817 29.3447 15.9817H19.7029H10.0611C9.84544 15.9817 9.66061 15.7983 9.66061 15.5539ZM11.1392 18.0596H19.7029H28.2974C28.2358 18.6402 28.1126 19.4041 27.8353 20.1986C27.5581 20.932 27.1576 21.696 26.5107 22.3682C25.0629 23.9572 22.7834 24.7517 19.7029 24.7517C16.6533 24.7517 14.3429 23.9572 12.8951 22.3988C12.2482 21.7265 11.8477 20.9626 11.5705 20.2292C11.2933 19.4041 11.17 18.6096 11.1392 18.0596ZM10.5231 26.0657C11.8785 25.8518 13.1723 25.7296 14.0041 25.699C15.5751 26.4324 17.485 26.8296 19.7337 26.8296C21.9516 26.8296 23.8615 26.463 25.4634 25.699C26.3259 25.7296 27.5889 25.8518 28.9443 26.0657C29.1291 28.327 29.2831 31.1383 29.3447 33.5523H19.7029H10.0919C10.1843 31.1383 10.3383 28.327 10.5231 26.0657ZM29.2831 37.9221H19.7029H10.1535C10.0919 37.3415 10.0919 36.547 10.0919 35.6303H19.7029H29.3447C29.3447 36.547 29.3447 37.3109 29.2831 37.9221ZM33.2569 37.9221H31.347C31.4087 37.0359 31.4395 35.9053 31.4086 34.683C31.4086 34.6524 31.4086 34.6219 31.4086 34.5913C31.4086 34.5607 31.4086 34.5302 31.4086 34.4996C31.4086 33.9801 31.3778 33.4607 31.3778 32.9412C31.2854 30.5271 31.1314 28.0214 31.039 26.4935C31.7167 26.6463 32.3944 26.8296 33.0105 27.0435C33.1645 28.6325 33.2877 30.2827 33.3493 31.8105C33.5034 34.4996 33.4726 36.8831 33.2569 37.9221ZM37.3231 37.9221H35.3516C35.5057 36.822 35.5673 35.0191 35.4441 31.9939C35.4441 31.8717 35.4441 31.7189 35.4132 31.5966C35.3516 30.3438 35.2592 29.152 35.1668 28.2047C35.2592 28.2964 35.3516 28.3881 35.4441 28.4492C36.0909 29.152 36.5222 30.3438 36.7995 31.6883C37.2923 33.7662 37.3539 36.272 37.3231 37.9221Z" fill="#FFDB40"/>
</svg>
