<svg width="43" height="40" viewBox="0 0 43 40" fill="none" xmlns="http://www.w3.org/2000/svg">
<path d="M42.5471 18.7282L36.1817 15.3864L42.5397 11.2618L21.2735 0L0.00731277 11.2618L6.36535 15.3864L0 18.7282L6.36535 22.8575L0 26.1994L21.2735 40L42.5471 26.1994L36.1817 22.8575L42.5471 18.7282ZM37.6287 11.4791L33.409 14.2166L29.7173 11.9313L33.6622 9.3787L37.6287 11.4791ZM18.9814 15.9118L15.3616 18.2541L11.2391 15.5797L14.9639 13.3124L18.9814 15.9118ZM17.326 11.8744L21.142 9.55164L25.0612 11.9777L21.2735 14.4287L17.326 11.8744ZM21.2735 17.395L24.8961 19.7391L21.2735 22.0891L17.6509 19.7391L21.2735 17.395ZM23.5657 15.9117L27.4042 13.4281L31.0989 15.7152L27.1855 18.2539L23.5657 15.9117ZM31.1412 8.04363L27.3744 10.4809L23.5276 8.09947L27.1188 5.91345L31.1412 8.04363ZM21.2735 2.81791L24.5577 4.5571L21.1531 6.62944L17.8903 4.60954L21.2735 2.81791ZM15.3403 5.96015L18.7675 8.08169L15.0044 10.3722L11.4058 8.04363L15.3403 5.96015ZM4.91825 11.4791L8.88468 9.37862L12.6422 11.8099L8.92041 14.0753L4.91825 11.4791ZM4.92556 18.9551L8.76177 16.941L21.2735 25.0577L33.7853 16.941L37.6215 18.9551L21.2735 29.5604L4.92556 18.9551ZM37.6214 26.4263L21.2735 37.0315L4.92556 26.4263L8.76177 24.4122L21.2735 32.5288L33.7853 24.4122L37.6214 26.4263Z" fill="#FFCF00" fill-opacity="0.75"/>
</svg>
