<svg width="43" height="40" viewBox="0 0 43 40" fill="none" xmlns="http://www.w3.org/2000/svg">
<path d="M42.6822 24.1389C42.5827 23.8923 42.4116 23.6811 42.191 23.5326C41.9704 23.3841 41.7104 23.3052 41.4445 23.3059H40.7551C39.5879 23.3068 38.4403 23.606 37.4212 24.175L32.3865 26.9902H30.9505C30.7833 26.0761 30.301 25.2495 29.5875 24.6542C28.8741 24.0588 27.9745 23.7323 27.0453 23.7313H17.9772C17.8739 23.7314 17.7718 23.7539 17.6781 23.7974C17.5844 23.8409 17.5013 23.9043 17.4346 23.9832L14.6871 27.2396C14.6212 27.1617 14.5392 27.0991 14.4467 27.056C14.3542 27.013 14.2534 26.9905 14.1514 26.9902H0.709679C0.521461 26.9902 0.340951 27.0649 0.20786 27.198C0.0747694 27.3311 0 27.5116 0 27.6998C0 27.8881 0.0747694 28.0686 0.20786 28.2017C0.340951 28.3348 0.521461 28.4095 0.709679 28.4095H9.37994V38.5807H0.709679C0.521461 38.5807 0.340951 38.6554 0.20786 38.7885C0.0747694 38.9216 0 39.1021 0 39.2903C0 39.4786 0.0747694 39.6591 0.20786 39.7922C0.340951 39.9253 0.521461 40 0.709679 40H14.1514C14.3396 40 14.5201 39.9253 14.6532 39.7922C14.7863 39.6591 14.8611 39.4786 14.8611 39.2903V35.8871L29.3337 35.2229C29.3479 35.2229 29.3617 35.2229 29.3742 35.2196C31.6503 34.9769 33.7791 33.9773 35.4195 32.3809L42.3772 25.5968C42.5676 25.4119 42.6984 25.1743 42.7527 24.9145C42.807 24.6547 42.7825 24.3846 42.6822 24.1389V24.1389ZM13.4434 38.5807H10.7993V28.4095H13.4434V38.5807ZM34.43 31.3667C33.0231 32.7352 31.1989 33.5938 29.2477 33.8059L14.8627 34.4665V29.2352L18.3097 25.1511H27.0453C27.6268 25.1523 28.1905 25.352 28.6432 25.7169C29.096 26.0819 29.4106 26.5904 29.5352 27.1585L22.344 28.9237C22.1758 28.9653 22.0286 29.0669 21.9301 29.2094C21.8317 29.3519 21.7887 29.5255 21.8094 29.6975C21.8301 29.8695 21.913 30.028 22.0425 30.1431C22.1719 30.2582 22.339 30.322 22.5123 30.3224C22.5695 30.3225 22.6266 30.3156 22.6822 30.3017L30.3897 28.4095H32.5715C32.6927 28.4096 32.8119 28.3786 32.9178 28.3195L38.1142 25.4139C38.9215 24.9626 39.8307 24.7253 40.7555 24.7245H41.2421L34.43 31.3667Z" fill="#FFDB40"/>
<path d="M28.8194 21.0357C30.8996 21.0357 32.9331 20.4189 34.6628 19.2632C36.3924 18.1074 37.7405 16.4648 38.5366 14.5429C39.3327 12.621 39.541 10.5062 39.1351 8.46593C38.7293 6.42567 37.7276 4.55157 36.2566 3.08062C34.7857 1.60967 32.9116 0.607937 30.8713 0.202103C28.831 -0.203731 26.7162 0.00455687 24.7944 0.800629C22.8725 1.5967 21.2298 2.9448 20.0741 4.67446C18.9184 6.40411 18.3015 8.43763 18.3015 10.5179C18.3047 13.3064 19.4139 15.9798 21.3857 17.9516C23.3575 19.9234 26.0308 21.0325 28.8194 21.0357V21.0357ZM28.8194 1.41936C30.6189 1.41936 32.378 1.95298 33.8742 2.95274C35.3705 3.9525 36.5366 5.37349 37.2253 7.03602C37.9139 8.69856 38.0941 10.528 37.743 12.2929C37.392 14.0578 36.5254 15.679 35.253 16.9515C33.9805 18.2239 32.3593 19.0905 30.5944 19.4415C28.8295 19.7926 27.0001 19.6124 25.3375 18.9238C23.675 18.2351 22.254 17.069 21.2542 15.5727C20.2545 14.0765 19.7209 12.3174 19.7209 10.5179C19.7237 8.10565 20.6831 5.79303 22.3888 4.08734C24.0945 2.38164 26.4072 1.42216 28.8194 1.41936V1.41936Z" fill="#FFDB40"/>
<path d="M26.9559 13.0975C26.9559 12.9093 26.8811 12.7288 26.748 12.5957C26.6149 12.4626 26.4344 12.3878 26.2462 12.3878C26.058 12.3878 25.8775 12.4626 25.7444 12.5957C25.6113 12.7288 25.5365 12.9093 25.5365 13.0975C25.5377 13.8448 25.793 14.5695 26.2604 15.1525C26.7278 15.7356 27.3796 16.1424 28.1088 16.3061V17.4991C28.1088 17.6874 28.1836 17.8679 28.3167 18.001C28.4497 18.1341 28.6303 18.2088 28.8185 18.2088C29.0067 18.2088 29.1872 18.1341 29.3203 18.001C29.4534 17.8679 29.5282 17.6874 29.5282 17.4991V16.3097C30.2614 16.1501 30.9179 15.7445 31.3887 15.1602C31.8595 14.5759 32.1162 13.8481 32.1162 13.0977C32.1162 12.3473 31.8595 11.6196 31.3887 11.0353C30.9179 10.451 30.2614 10.0453 29.5282 9.8857V6.20713C29.8728 6.34689 30.168 6.58619 30.376 6.89447C30.584 7.20275 30.6955 7.56603 30.6961 7.93793C30.6961 8.12615 30.7709 8.30666 30.9039 8.43975C31.037 8.57284 31.2175 8.64761 31.4058 8.64761C31.594 8.64761 31.7745 8.57284 31.9076 8.43975C32.0407 8.30666 32.1154 8.12615 32.1154 7.93793C32.1143 7.18794 31.8573 6.46079 31.3869 5.8767C30.9164 5.29262 30.2607 4.88658 29.5282 4.72572V3.53549C29.5282 3.34727 29.4534 3.16676 29.3203 3.03367C29.1872 2.90058 29.0067 2.82581 28.8185 2.82581C28.6303 2.82581 28.4497 2.90058 28.3167 3.03367C28.1836 3.16676 28.1088 3.34727 28.1088 3.53549V4.72896C27.379 4.89136 26.7263 5.29774 26.2586 5.88103C25.7908 6.46431 25.5359 7.18965 25.5359 7.93732C25.5359 8.685 25.7908 9.41034 26.2586 9.99362C26.7263 10.5769 27.379 10.9833 28.1088 11.1457V14.823C27.7679 14.6811 27.4766 14.4416 27.2715 14.1346C27.0663 13.8276 26.9565 13.4667 26.9559 13.0975V13.0975ZM30.6961 13.0975C30.6955 13.4694 30.5841 13.8327 30.3761 14.141C30.168 14.4493 29.8728 14.6886 29.5282 14.8283V11.3671C29.8728 11.5068 30.168 11.746 30.376 12.0542C30.5841 12.3624 30.6955 12.7256 30.6961 13.0975V13.0975ZM26.9559 7.93793C26.9563 7.56858 27.066 7.20762 27.2712 6.90049C27.4763 6.59336 27.7678 6.35381 28.1088 6.21199V9.66428C27.7678 9.52226 27.4765 9.2826 27.2713 8.97543C27.0662 8.66826 26.9564 8.3073 26.9559 7.93793Z" fill="#FFDB40"/>
</svg>
