<svg width="464" height="58" viewBox="0 0 464 58" fill="none" xmlns="http://www.w3.org/2000/svg">
<path d="M48.935 38.645C48.935 38.775 48.87 39.685 48.74 41.375H22.285C22.7617 43.5417 23.8883 45.2533 25.665 46.51C27.4417 47.7667 29.6517 48.395 32.295 48.395C34.115 48.395 35.7183 48.135 37.105 47.615C38.535 47.0517 39.8567 46.185 41.07 45.015L46.465 50.865C43.1717 54.635 38.3617 56.52 32.035 56.52C28.0917 56.52 24.6033 55.7617 21.57 54.245C18.5367 52.685 16.1967 50.54 14.55 47.81C12.9033 45.08 12.08 41.9817 12.08 38.515C12.08 35.0917 12.8817 32.015 14.485 29.285C16.1317 26.5117 18.3633 24.3667 21.18 22.85C24.04 21.29 27.225 20.51 30.735 20.51C34.1583 20.51 37.2567 21.2467 40.03 22.72C42.8033 24.1933 44.97 26.3167 46.53 29.09C48.1333 31.82 48.935 35.005 48.935 38.645ZM30.8 28.18C28.5033 28.18 26.575 28.83 25.015 30.13C23.455 31.43 22.5017 33.2067 22.155 35.46H39.38C39.0333 33.25 38.08 31.495 36.52 30.195C34.96 28.8517 33.0533 28.18 30.8 28.18Z" fill="#C9151B"/>
<path d="M76.2699 56.576C72.8459 56.576 69.7419 55.84 66.9579 54.368C64.2059 52.864 62.0299 50.8 60.4299 48.176C58.8619 45.52 58.0779 42.528 58.0779 39.2C58.0779 35.872 58.8619 32.896 60.4299 30.272C62.0299 27.616 64.2059 25.552 66.9579 24.08C69.7419 22.576 72.8619 21.824 76.3179 21.824C79.2299 21.824 81.8539 22.336 84.1899 23.36C86.5579 24.384 88.5419 25.856 90.1419 27.776L85.1499 32.384C82.8779 29.76 80.0619 28.448 76.7019 28.448C74.6219 28.448 72.7659 28.912 71.1339 29.84C69.5019 30.736 68.2219 32 67.2939 33.632C66.3979 35.264 65.9499 37.12 65.9499 39.2C65.9499 41.28 66.3979 43.136 67.2939 44.768C68.2219 46.4 69.5019 47.68 71.1339 48.608C72.7659 49.504 74.6219 49.952 76.7019 49.952C80.0619 49.952 82.8779 48.624 85.1499 45.968L90.1419 50.576C88.5419 52.528 86.5579 54.016 84.1899 55.04C81.8219 56.064 79.1819 56.576 76.2699 56.576ZM114.802 56.576C111.314 56.576 108.162 55.824 105.346 54.32C102.562 52.816 100.37 50.752 98.7699 48.128C97.2019 45.472 96.4179 42.496 96.4179 39.2C96.4179 35.904 97.2019 32.944 98.7699 30.32C100.37 27.664 102.562 25.584 105.346 24.08C108.162 22.576 111.314 21.824 114.802 21.824C118.29 21.824 121.426 22.576 124.21 24.08C126.994 25.584 129.186 27.664 130.786 30.32C132.386 32.944 133.186 35.904 133.186 39.2C133.186 42.496 132.386 45.472 130.786 48.128C129.186 50.752 126.994 52.816 124.21 54.32C121.426 55.824 118.29 56.576 114.802 56.576ZM114.802 49.952C116.786 49.952 118.578 49.504 120.178 48.608C121.778 47.68 123.026 46.4 123.922 44.768C124.85 43.136 125.314 41.28 125.314 39.2C125.314 37.12 124.85 35.264 123.922 33.632C123.026 32 121.778 30.736 120.178 29.84C118.578 28.912 116.786 28.448 114.802 28.448C112.818 28.448 111.026 28.912 109.426 29.84C107.826 30.736 106.562 32 105.634 33.632C104.738 35.264 104.29 37.12 104.29 39.2C104.29 41.28 104.738 43.136 105.634 44.768C106.562 46.4 107.826 47.68 109.426 48.608C111.026 49.504 112.818 49.952 114.802 49.952ZM173.686 22.4V56H167.302L150.55 35.6V56H142.87V22.4H149.302L166.006 42.8V22.4H173.686ZM192.435 28.736H181.683V22.4H210.963V28.736H200.211V56H192.435V28.736ZM240.395 56L233.915 46.64H233.531H226.763V56H218.987V22.4H233.531C236.507 22.4 239.083 22.896 241.259 23.888C243.467 24.88 245.163 26.288 246.347 28.112C247.531 29.936 248.123 32.096 248.123 34.592C248.123 37.088 247.515 39.248 246.299 41.072C245.115 42.864 243.419 44.24 241.211 45.2L248.747 56H240.395ZM240.251 34.592C240.251 32.704 239.643 31.264 238.427 30.272C237.211 29.248 235.435 28.736 233.099 28.736H226.763V40.448H233.099C235.435 40.448 237.211 39.936 238.427 38.912C239.643 37.888 240.251 36.448 240.251 34.592ZM280.252 48.8H264.652L261.676 56H253.708L268.684 22.4H276.364L291.388 56H283.228L280.252 48.8ZM277.804 42.896L272.476 30.032L267.148 42.896H277.804ZM314.325 56.576C310.901 56.576 307.797 55.84 305.013 54.368C302.261 52.864 300.085 50.8 298.485 48.176C296.917 45.52 296.133 42.528 296.133 39.2C296.133 35.872 296.917 32.896 298.485 30.272C300.085 27.616 302.261 25.552 305.013 24.08C307.797 22.576 310.917 21.824 314.373 21.824C317.285 21.824 319.909 22.336 322.245 23.36C324.613 24.384 326.597 25.856 328.197 27.776L323.205 32.384C320.933 29.76 318.117 28.448 314.757 28.448C312.677 28.448 310.821 28.912 309.189 29.84C307.557 30.736 306.277 32 305.349 33.632C304.453 35.264 304.005 37.12 304.005 39.2C304.005 41.28 304.453 43.136 305.349 44.768C306.277 46.4 307.557 47.68 309.189 48.608C310.821 49.504 312.677 49.952 314.757 49.952C318.117 49.952 320.933 48.624 323.205 45.968L328.197 50.576C326.597 52.528 324.613 54.016 322.245 55.04C319.877 56.064 317.237 56.576 314.325 56.576ZM343.92 28.736H333.168V22.4H362.448V28.736H351.696V56H343.92V28.736ZM444.182 56L437.702 46.64H437.318H430.55V56H422.774V22.4H437.318C440.294 22.4 442.87 22.896 445.046 23.888C447.254 24.88 448.95 26.288 450.134 28.112C451.318 29.936 451.91 32.096 451.91 34.592C451.91 37.088 451.302 39.248 450.086 41.072C448.902 42.864 447.206 44.24 444.998 45.2L452.534 56H444.182ZM444.038 34.592C444.038 32.704 443.43 31.264 442.214 30.272C440.998 29.248 439.222 28.736 436.886 28.736H430.55V40.448H436.886C439.222 40.448 440.998 39.936 442.214 38.912C443.43 37.888 444.038 36.448 444.038 34.592Z" fill="#242526" fill-opacity="0.9"/>
<g clip-path="url(#clip0)">
<path d="M411.082 34.0594L408.085 33.4078C407.824 32.6098 407.501 31.8314 407.12 31.0816L408.78 28.5004C409.076 28.0392 409.011 27.4337 408.623 27.0462L403.954 22.3766C403.566 21.9892 402.961 21.924 402.5 22.2203L399.918 23.8798C399.169 23.4986 398.39 23.1758 397.592 22.9151L396.941 19.9176C396.824 19.382 396.35 19 395.802 19H389.198C388.65 19 388.176 19.382 388.059 19.9176L387.408 22.9151C386.61 23.1758 385.831 23.4986 385.082 23.8798L382.5 22.2203C382.039 21.924 381.434 21.9892 381.046 22.3766L376.377 27.0462C375.989 27.4337 375.924 28.0392 376.22 28.5004L377.88 31.0816C377.499 31.8314 377.176 32.6098 376.915 33.4078L373.918 34.0594C373.382 34.1761 373 34.65 373 35.1981V41.8019C373 42.35 373.382 42.8239 373.918 42.9406L376.915 43.5922C377.176 44.3902 377.499 45.1686 377.88 45.9184L376.22 48.4996C375.924 48.9608 375.989 49.5663 376.377 49.9538L381.046 54.6234C381.434 55.0108 382.039 55.076 382.5 54.7797L385.082 53.1202C385.831 53.5014 386.61 53.8242 387.408 54.0849L388.059 57.0824C388.176 57.618 388.65 58 389.198 58H395.802C396.35 58 396.824 57.618 396.941 57.0824L397.592 54.0849C398.39 53.8242 399.169 53.5014 399.918 53.1202L402.5 54.7797C402.961 55.076 403.566 55.0111 403.954 54.6234L408.623 49.9538C409.011 49.5663 409.076 48.9608 408.78 48.4996L407.12 45.9184C407.501 45.1686 407.824 44.3902 408.085 43.5922L411.082 42.9406C411.618 42.8239 412 42.35 412 41.8019V35.1981C412 34.65 411.618 34.1761 411.082 34.0594ZM409.669 40.8625L406.921 41.46C406.499 41.5519 406.162 41.8697 406.046 42.2857C405.744 43.369 405.309 44.4167 404.755 45.3995C404.542 45.7759 404.555 46.2389 404.789 46.6025L406.311 48.9698L402.97 52.3112L400.602 50.7893C400.239 50.5554 399.776 50.5423 399.4 50.7547C398.417 51.3094 397.369 51.7438 396.286 52.0458C395.87 52.1618 395.552 52.4987 395.46 52.9209L394.863 55.6693H390.137L389.54 52.9209C389.448 52.4987 389.13 52.1618 388.714 52.0458C387.631 51.7438 386.583 51.3094 385.6 50.7547C385.224 50.5423 384.761 50.5557 384.398 50.7893L382.03 52.3112L378.689 48.9698L380.211 46.6025C380.445 46.2389 380.458 45.7759 380.246 45.3995C379.691 44.4167 379.257 43.369 378.954 42.2857C378.838 41.8697 378.502 41.5519 378.079 41.46L375.331 40.8625V36.1375L378.079 35.54C378.501 35.4481 378.838 35.1303 378.954 34.7143C379.256 33.631 379.691 32.5833 380.245 31.6005C380.458 31.2241 380.445 30.7611 380.211 30.3975L378.689 28.0302L382.03 24.6888L384.398 26.2107C384.761 26.4446 385.224 26.4577 385.6 26.2453C386.583 25.6906 387.631 25.2562 388.714 24.9542C389.13 24.8382 389.448 24.5013 389.54 24.0791L390.137 21.3307H394.863L395.46 24.0791C395.552 24.5013 395.87 24.8382 396.286 24.9542C397.369 25.2562 398.417 25.6906 399.4 26.2453C399.776 26.4577 400.239 26.4443 400.602 26.2107L402.97 24.6888L406.311 28.0302L404.789 30.3975C404.555 30.7611 404.542 31.2241 404.754 31.6005C405.309 32.5833 405.743 33.631 406.046 34.7143C406.162 35.1303 406.498 35.4481 406.921 35.54L409.669 36.1375V40.8625Z" fill="#C9151B" fill-opacity="0.75"/>
<path d="M382.202 30.1959L383.687 32.7946C383.737 32.8825 383.821 32.946 383.919 32.9706L385.304 33.317L390.056 38.069L390.581 37.5441L385.755 32.7178C385.708 32.6702 385.648 32.6364 385.583 32.6201L384.251 32.2861L382.987 30.0722L384.071 28.9881L386.286 30.2537L386.62 31.5851C386.636 31.6504 386.67 31.7101 386.718 31.7576L391.544 36.5841L392.069 36.059L387.317 31.3069L386.971 29.9222C386.946 29.824 386.882 29.74 386.795 29.6897L384.196 28.2048C384.051 28.1223 383.868 28.1467 383.75 28.2645L382.265 29.7496C382.146 29.867 382.12 30.0497 382.202 30.1959Z" fill="#C9151B"/>
<path d="M387.244 43.1303C387.177 43.0185 387.056 42.9502 386.926 42.9502H384.698C384.568 42.9502 384.447 43.0185 384.38 43.1303L383.266 44.9865C383.196 45.1041 383.196 45.2512 383.266 45.3689L384.38 47.2251C384.447 47.3368 384.568 47.4052 384.698 47.4052H386.926C387.056 47.4052 387.177 47.3368 387.244 47.2251L388.358 45.3689C388.429 45.2512 388.429 45.1041 388.358 44.9865L387.244 43.1303ZM386.716 46.6627H384.909L384.018 45.1777L384.909 43.6926H386.716L387.607 45.1777L386.716 46.6627Z" fill="#C9151B"/>
<path d="M399.177 36.2679C401.629 36.2761 403.624 34.295 403.632 31.8429C403.633 31.4697 403.588 31.0979 403.496 30.7361C403.446 30.5371 403.245 30.416 403.046 30.4655C402.98 30.4819 402.921 30.5156 402.873 30.5631L400.562 32.8726L398.729 32.2616L398.117 30.4284L400.428 28.1169C400.573 27.9718 400.573 27.7368 400.428 27.5918C400.38 27.544 400.32 27.5101 400.254 27.4939C397.876 26.8917 395.46 28.3312 394.858 30.709C394.767 31.0697 394.721 31.4405 394.722 31.8127C394.723 32.105 394.753 32.3964 394.813 32.6826L386.682 40.8131C386.396 40.754 386.104 40.724 385.812 40.7229C383.352 40.7229 381.357 42.7175 381.357 45.1781C381.357 47.6385 383.352 49.6331 385.812 49.6331C388.273 49.6331 390.267 47.6385 390.267 45.1781C390.266 44.8857 390.236 44.5943 390.177 44.3081L392.123 42.3616L392.975 43.2129C393.12 43.3579 393.355 43.3579 393.5 43.2129L393.685 43.0272C393.848 42.8655 394.111 42.8655 394.274 43.0272C394.437 43.1894 394.437 43.4527 394.275 43.6154C394.275 43.6155 394.274 43.6158 394.274 43.6161L394.088 43.8017C393.944 43.9466 393.944 44.1817 394.088 44.3266L398.517 48.7554C399.682 49.9309 401.579 49.9394 402.755 48.7746C403.93 47.6098 403.939 45.7124 402.774 44.5371C402.768 44.5307 402.761 44.5242 402.755 44.5178L398.326 40.0892C398.181 39.9443 397.946 39.9443 397.801 40.0892L397.616 40.2748C397.453 40.4367 397.19 40.4367 397.027 40.2748C396.864 40.1126 396.864 39.8493 397.026 39.6868C397.026 39.6865 397.026 39.6863 397.027 39.686L397.212 39.5003C397.357 39.3554 397.357 39.1203 397.212 38.9754L396.361 38.1241L398.308 36.1776C398.594 36.2367 398.885 36.267 399.177 36.2679ZM400.636 48.8907C400.366 48.8902 400.099 48.8415 399.846 48.7466L402.746 45.847C403.183 47.0109 402.595 48.3091 401.431 48.7466C401.177 48.8421 400.908 48.891 400.636 48.8907ZM396.43 39.2416C396.019 39.732 396.083 40.4629 396.574 40.8739C397.005 41.2351 397.633 41.2348 398.063 40.8729L402.23 45.0429C402.275 45.0883 402.317 45.1361 402.358 45.1846L399.184 48.3589C399.135 48.3181 399.087 48.2758 399.042 48.2304L394.873 44.0606C395.284 43.5702 395.219 42.8392 394.729 42.4282C394.298 42.0669 393.67 42.0673 393.239 42.4291L392.645 41.8352L395.836 38.649L396.43 39.2416ZM397.929 35.5076L389.507 43.928C389.415 44.0202 389.378 44.1542 389.409 44.2808C389.918 46.281 388.71 48.3155 386.709 48.8247C384.709 49.334 382.675 48.1254 382.165 46.125C381.656 44.1247 382.865 42.0902 384.865 41.5809C385.47 41.427 386.104 41.427 386.709 41.5809C386.836 41.6119 386.97 41.5748 387.062 41.483L395.482 33.0625C395.574 32.9702 395.612 32.8363 395.58 32.7098C395.074 30.7329 396.266 28.7203 398.243 28.2143C398.617 28.1189 399.003 28.0822 399.388 28.1062L397.43 30.0654C397.33 30.1646 397.296 30.3117 397.34 30.445L398.082 32.6727C398.12 32.7834 398.207 32.8705 398.317 32.9073L400.545 33.6498C400.678 33.6943 400.825 33.6596 400.925 33.5603L402.883 31.6019C402.888 31.6728 402.89 31.7429 402.89 31.8127C402.9 33.8527 401.255 35.5148 399.215 35.5253C398.9 35.5268 398.585 35.4881 398.28 35.4099C398.153 35.3782 398.019 35.4152 397.927 35.5075H397.929V35.5076Z" fill="#C9151B"/>
<path d="M400.554 46.0289L400.029 46.5539L396.316 42.8415L396.841 42.3164L400.554 46.0289Z" fill="#C9151B"/>
</g>
<g clip-path="url(#clip1)">
<path d="M7.20699 31.5471C6.89348 31.8836 6.67093 32.2983 6.56079 32.7514C6.45064 33.2045 6.4566 33.6806 6.5781 34.134L6.93601 35.4697C7.01092 35.748 7.02083 36.0395 6.96493 36.3206C6.90902 36.6017 6.78889 36.8643 6.61432 37.087L13.2605 35.3062C14.7893 34.8965 16.2074 34.1477 17.4153 33.1123C17.8254 32.7595 18.3076 32.5048 18.8276 32.3663L51.71 23.5554C51.9013 23.5028 52.068 23.3837 52.1817 23.2183C52.2955 23.0529 52.3493 22.8515 52.3341 22.6482C52.3189 22.4449 52.2355 22.2523 52.0982 22.1031C51.9609 21.9539 51.7781 21.8572 51.5808 21.8295L43.9628 21.6984L7.20699 31.5471Z" fill="#FFCF00"/>
<path d="M39.1461 18.393C38.4482 16.8931 37.5184 15.5162 36.3932 14.3161C33.7821 11.5914 30.8695 10.6693 29.2467 10.1783C26.3103 9.29385 23.2164 9.16305 20.2398 9.79752C18.8894 10.093 14.8981 11.0215 11.6683 14.4213C10.1387 16.0334 9.22924 17.894 7.41597 21.6162C7.07025 22.3316 6.75105 23.0123 6.45837 23.6582C6.26757 26.3058 6.52342 28.9737 7.21472 31.5451L40.7665 22.555C40.5421 21.4267 40.0684 20.2905 39.1461 18.393Z" fill="#FFCF00"/>
<path d="M20.3147 6.95869C12.5429 9.04115 7.1002 15.3638 6.45155 23.6631C6.74135 23.0198 7.06055 22.3391 7.40914 21.6211C9.22994 17.8968 10.1394 16.0363 11.6615 14.4262C14.8913 11.0264 18.8826 10.0979 20.2329 9.80241C23.2096 9.16793 26.3035 9.29874 29.2398 10.1832C30.8627 10.6742 33.7854 11.5936 36.3863 14.321C37.5116 15.5211 38.4414 16.898 39.1393 18.3979C40.0616 20.2954 40.5353 21.4315 40.7597 22.5598L43.9562 21.7033C40.6741 9.69525 31.9449 3.84239 20.3147 6.95869Z" fill="#FFCF00"/>
<path opacity="0.43" d="M7.5219 29.9348C7.5219 29.9348 7.51223 29.8987 7.49219 29.8239C7.47215 29.7491 7.46938 29.7388 7.47173 29.6774C7.47408 29.6159 7.45361 29.5496 7.44291 29.4695C7.40287 29.1596 7.35059 28.7038 7.32558 28.1191C7.29831 27.4152 7.32064 26.7109 7.39238 26.0117C7.43146 25.606 7.49899 25.1761 7.58563 24.7273C7.60571 24.6151 7.6289 24.5011 7.65521 24.3853C7.68091 24.2706 7.70912 24.1553 7.73733 24.0399L7.75922 23.9512L7.76891 23.9071L7.77955 23.8766L7.77471 23.8586L7.82377 23.6906L7.92369 23.3516L7.97387 23.1778C7.98942 23.1172 8.00845 23.0577 8.03088 22.9995L8.16469 22.6264L8.30396 22.2436L8.47313 21.8722L8.64092 21.4956L8.82583 21.1227C8.88914 20.9979 8.94925 20.8713 9.01575 20.7484L9.2278 20.3765C9.52415 19.8676 9.84941 19.3771 10.2019 18.9077C10.5733 18.421 10.972 17.9571 11.3962 17.5182C11.836 17.0651 12.3013 16.6386 12.7898 16.241C13.0392 16.0387 13.2964 15.8454 13.5607 15.6585L13.5883 15.6511L13.6008 15.6478L13.6325 15.6255L13.681 15.5959L13.7766 15.5316L13.9685 15.4055L14.163 15.2788C14.227 15.2368 14.2852 15.1936 14.3624 15.1508L14.7999 14.8981L15.0208 14.7698L15.2408 14.6584L15.6834 14.4348C15.8312 14.3647 15.983 14.2992 16.134 14.2311C16.4347 14.0897 16.7501 13.9831 17.0588 13.8617C17.2158 13.8058 17.3742 13.7551 17.5325 13.7044L17.7832 13.6372L18.0339 13.57C18.6733 13.3862 19.3247 13.2477 19.9838 13.1553C20.6378 13.06 21.2975 13.0069 21.9592 12.9964C22.1243 12.9908 22.289 12.9937 22.4529 12.994L22.6997 13.0025L22.9415 13.0123C23.088 13.0173 23.2547 13.0279 23.4158 13.0372C23.5768 13.0466 23.7367 13.0618 23.8984 13.0737C24.5359 13.1329 25.1699 13.2316 25.7968 13.3693C26.4106 13.5021 27.0153 13.6781 27.6065 13.8959C27.9015 13.9938 28.1807 14.1235 28.4623 14.2415C28.6018 14.3009 28.7365 14.3726 28.8742 14.4352C29.0119 14.4978 29.1453 14.5643 29.2757 14.6399C29.7898 14.9142 30.2857 15.2237 30.7599 15.5661C30.8735 15.6489 30.9852 15.7351 31.0956 15.8161L31.2613 15.943L31.4183 16.0778L31.7278 16.3404L31.8816 16.4733L31.9015 16.4873C31.9015 16.4873 31.8974 16.4718 31.9331 16.5148L31.966 16.5474L32.0305 16.6075L32.2866 16.8512C32.3284 16.887 32.3789 16.9453 32.4235 16.9914L32.5644 17.136C32.7556 17.328 32.91 17.5133 33.0713 17.6939C33.3653 18.0432 33.6422 18.4072 33.9009 18.7844C34.3274 19.3963 34.7052 20.0419 35.0308 20.7148C35.2403 21.1467 35.4287 21.5888 35.5953 22.0394C35.6381 22.1993 35.6939 22.317 35.721 22.3982L35.7548 22.5245C35.8141 22.6989 35.8394 22.8829 35.8293 23.0663C35.8192 23.2496 35.774 23.4286 35.6962 23.593C35.6184 23.7575 35.5095 23.9042 35.3757 24.0247C35.242 24.1452 35.086 24.2372 34.9167 24.2955C34.7474 24.3537 34.5681 24.377 34.3891 24.3641C34.21 24.3513 34.0346 24.3024 33.873 24.2203C33.7114 24.1382 33.5668 24.0246 33.4472 23.8858C33.3277 23.7471 33.2357 23.5859 33.1765 23.4116C33.1709 23.3957 33.1665 23.3793 33.1634 23.3626L33.1565 23.3369C33.1565 23.3369 33.1475 23.3033 33.1295 23.2363C33.1116 23.1692 33.0846 23.0687 33.0501 22.9397C32.931 22.569 32.793 22.2047 32.6367 21.8483C32.2518 20.953 31.7553 20.1115 31.1598 19.3448C31.039 19.1948 30.9122 19.0325 30.7834 18.8929L30.6894 18.7826C30.6551 18.7449 30.6304 18.7128 30.5858 18.6667L30.3376 18.4126L30.275 18.3492L30.2446 18.3159C30.2814 18.353 30.2446 18.3159 30.2487 18.3314L30.2439 18.3133L30.1259 18.204C30.0448 18.1318 29.9654 18.0563 29.8829 17.9789C29.841 17.9431 29.801 17.9041 29.761 17.8651L29.6305 17.7591L29.3659 17.5536C28.9914 17.2598 28.5989 16.9911 28.191 16.7491C28.088 16.6855 27.977 16.6323 27.8712 16.5584C27.7654 16.4845 27.6533 16.4372 27.5364 16.3718C27.3069 16.2674 27.0815 16.1482 26.8397 16.0582C26.3497 15.8538 25.8472 15.6837 25.3356 15.5492C24.799 15.4077 24.255 15.2996 23.7066 15.2256L23.2847 15.1756L22.8485 15.1322L22.6318 15.1156L22.4183 15.101C22.2769 15.0946 22.1441 15.0805 21.9915 15.0827C21.4139 15.0677 20.8364 15.0895 20.2625 15.148C19.6829 15.2046 19.1082 15.3013 18.5424 15.4375L18.3318 15.4939L18.0861 15.5598L17.6649 15.6726C17.3897 15.7685 17.1078 15.8496 16.8398 15.9628C16.7061 16.0152 16.5692 16.0657 16.4368 16.1233L16.0393 16.3044L15.8427 16.393L15.6564 16.49L15.2838 16.6838C15.2211 16.7006 15.1555 16.7568 15.0902 16.7937L14.8937 16.9127L14.6972 17.0316L14.5976 17.0915L14.5491 17.1211C14.5491 17.1211 14.5783 17.0994 14.5491 17.1211L14.5241 17.1278C14.2836 17.2834 14.0478 17.4461 13.819 17.6152C12.9261 18.2755 12.1144 19.0432 11.4008 19.9021C11.0691 20.3093 10.7609 20.7361 10.4777 21.1803L10.276 21.5107C10.2118 21.6219 10.1525 21.7317 10.0944 21.8358L9.9128 22.1608C9.85926 22.2719 9.80823 22.3823 9.75124 22.4805C9.69425 22.5787 9.64599 22.6994 9.5922 22.7995L9.46073 23.1111L9.32926 23.4227C9.30626 23.4767 9.28608 23.5319 9.26879 23.5881C9.24864 23.6433 9.23168 23.7003 9.21222 23.758L9.09769 24.0928L9.04293 24.2594L9.04708 24.2749L9.036 24.3138L9.01204 24.3948L8.92319 24.695L8.84437 24.9925C8.751 25.3962 8.67172 25.7822 8.61933 26.1583C8.52707 26.7951 8.48035 27.4385 8.47953 28.0835C8.4807 28.6193 8.51077 29.0424 8.5439 29.3265C8.56255 29.3961 8.55588 29.4615 8.56218 29.5151C8.56848 29.5687 8.57339 29.6171 8.57874 29.6571L8.59091 29.7727C8.60343 29.9135 8.5626 30.053 8.47691 30.1623C8.39121 30.2716 8.26725 30.3423 8.13076 30.3597C7.99427 30.377 7.85576 30.3397 7.74402 30.2555C7.63227 30.1713 7.55589 30.0467 7.53072 29.9075L7.5219 29.9348Z" fill="#F9F9F9"/>
<path opacity="0.67" d="M30.5666 27.4605L8.42183 33.3942C8.24366 33.4412 8.05357 33.4138 7.89303 33.3181C7.73248 33.2224 7.61449 33.066 7.56477 32.8831C7.51631 32.6996 7.54016 32.505 7.63115 32.3414C7.72214 32.1778 7.87293 32.0585 8.05079 32.0094L30.1955 26.0758C30.3741 26.0286 30.5647 26.0562 30.7255 26.1525C30.8862 26.2488 31.0041 26.4059 31.0533 26.5894C31.1017 26.7726 31.0777 26.967 30.9865 27.1302C30.8953 27.2934 30.7444 27.4121 30.5666 27.4605Z" fill="#F9F9F9"/>
<path opacity="0.67" d="M34.9466 26.287L32.976 26.815C32.7979 26.8621 32.6078 26.8347 32.4472 26.739C32.2867 26.6433 32.1687 26.4869 32.119 26.304C32.0698 26.1205 32.0933 25.9255 32.1844 25.7617C32.2755 25.598 32.4267 25.4788 32.605 25.4303L34.5755 24.9023C34.7544 24.8551 34.9452 24.8826 35.1063 24.9786C35.2675 25.0747 35.3859 25.2317 35.4358 25.4153C35.4836 25.5989 35.459 25.7935 35.3674 25.9567C35.2758 26.1199 35.1246 26.2386 34.9466 26.287Z" fill="#F9F9F9"/>
<path d="M12.2144 29.3766C12.1313 29.3989 12.0425 29.3863 11.9675 29.3416C11.8926 29.2969 11.8376 29.2237 11.8147 29.1382L11.1928 26.8174C11.1699 26.732 11.181 26.6411 11.2235 26.5649C11.2661 26.4887 11.3367 26.4334 11.4198 26.4111C11.5027 26.3897 11.5909 26.4027 11.6653 26.4475C11.7397 26.4923 11.7943 26.5651 11.8171 26.6502L12.4389 28.971C12.4617 29.056 12.4509 29.1464 12.4088 29.2223C12.3668 29.2983 12.2969 29.3538 12.2144 29.3766Z" fill="#A36A43"/>
<path d="M13.0118 29.1627C12.9287 29.185 12.8399 29.1724 12.7649 29.1277C12.6899 29.083 12.6349 29.0099 12.612 28.9244L11.9902 26.6036C11.9673 26.5181 11.9783 26.4273 12.0209 26.3511C12.0635 26.2749 12.1341 26.2196 12.2172 26.1973C12.3003 26.1757 12.3888 26.1887 12.4636 26.2333C12.5383 26.2778 12.5934 26.3505 12.6169 26.4356L13.2388 28.7564C13.261 28.8419 13.2496 28.9324 13.2072 29.0084C13.1647 29.0844 13.0945 29.1398 13.0118 29.1627Z" fill="#A36A43"/>
<path d="M13.8092 28.9494C13.726 28.9717 13.6372 28.9591 13.5623 28.9144C13.4873 28.8697 13.4323 28.7965 13.4094 28.711L12.7876 26.3902C12.7646 26.3048 12.7757 26.2139 12.8183 26.1377C12.8608 26.0615 12.9315 26.0062 13.0146 25.9839C13.0564 25.972 13.1002 25.9688 13.1435 25.9746C13.1868 25.9804 13.2286 25.995 13.2665 26.0176C13.3044 26.0402 13.3376 26.0703 13.3641 26.1061C13.3905 26.1419 13.4098 26.1827 13.4207 26.2261L14.0426 28.5469C14.0533 28.5894 14.0557 28.6335 14.0497 28.6768C14.0438 28.72 14.0296 28.7615 14.0079 28.7989C13.9862 28.8362 13.9575 28.8688 13.9234 28.8946C13.8893 28.9204 13.8505 28.939 13.8092 28.9494Z" fill="#A36A43"/>
<path d="M14.606 28.7357C14.5231 28.7571 14.4348 28.7441 14.3604 28.6993C14.286 28.6545 14.2315 28.5817 14.2087 28.4966L13.5869 26.1758C13.5641 26.0908 13.5749 26.0005 13.6169 25.9245C13.659 25.8485 13.7289 25.7931 13.8114 25.7702C13.8945 25.7479 13.9833 25.7605 14.0583 25.8053C14.1332 25.85 14.1882 25.9231 14.2111 26.0086L14.833 28.3294C14.8559 28.4148 14.8448 28.5057 14.8022 28.5819C14.7597 28.6581 14.6891 28.7134 14.606 28.7357Z" fill="#A36A43"/>
</g>
<defs>
<clipPath id="clip0">
<rect width="39" height="39" fill="white" transform="translate(373 19)"/>
</clipPath>
<clipPath id="clip1">
<rect width="47.9178" height="25.5562" fill="white" transform="translate(0 12.4019) rotate(-15)"/>
</clipPath>
</defs>
</svg>
