<svg width="24" height="25" viewBox="0 0 24 25" fill="none" xmlns="http://www.w3.org/2000/svg">
<path d="M18.7408 5.41963C17.8657 4.54557 16.8251 3.85475 15.6799 3.38756C14.5346 2.92037 13.3078 2.6862 12.071 2.69872C10.8339 2.68935 9.60719 2.92492 8.46158 3.39185C7.31597 3.85878 6.27409 4.54782 5.39602 5.41928C4.51794 6.29073 3.82102 7.32735 3.34544 8.4694C2.86985 9.61144 2.625 10.8363 2.625 12.0734V17.3234C2.62555 17.8206 2.82327 18.2971 3.17478 18.6487C3.52629 19.0002 4.00289 19.1979 4.5 19.1984H6C6.49711 19.1979 6.97371 19.0002 7.32522 18.6487C7.67673 18.2971 7.87445 17.8206 7.875 17.3234V13.5734C7.87445 13.0763 7.67673 12.5997 7.32522 12.2482C6.97371 11.8967 6.49711 11.699 6 11.6984H3.38297C3.48023 9.4657 4.44029 7.35787 6.06091 5.81898C7.68153 4.2801 9.83619 3.43031 12.071 3.44863C14.3048 3.43175 16.4581 4.28218 18.0775 5.82092C19.6969 7.35965 20.6562 9.46666 20.7534 11.6984H18.1364C17.6393 11.699 17.1627 11.8967 16.8112 12.2482C16.4597 12.5997 16.262 13.0763 16.2614 13.5734V17.3234C16.262 17.8206 16.4597 18.2971 16.8112 18.6487C17.1627 19.0002 17.6393 19.1979 18.1364 19.1984H19.6364C20.0427 19.1983 20.4377 19.0654 20.7614 18.8199V19.5734C20.7606 20.2694 20.4838 20.9366 19.9917 21.4287C19.4996 21.9209 18.8324 22.1977 18.1364 22.1984H12.75C12.6505 22.1984 12.5552 22.2379 12.4848 22.3083C12.4145 22.3786 12.375 22.474 12.375 22.5734C12.375 22.6729 12.4145 22.7683 12.4848 22.8386C12.5552 22.9089 12.6505 22.9484 12.75 22.9484H18.1365C19.0313 22.9474 19.8892 22.5915 20.5219 21.9588C21.1546 21.3261 21.5105 20.4682 21.5115 19.5734V12.0734C21.5151 10.8359 21.2719 9.61002 20.7961 8.46755C20.3204 7.32507 19.6217 6.2889 18.7408 5.41963V5.41963ZM6 12.4484C6.29827 12.4488 6.58423 12.5674 6.79514 12.7783C7.00605 12.9892 7.12468 13.2752 7.125 13.5734V17.3234C7.12468 17.6217 7.00605 17.9077 6.79514 18.1186C6.58423 18.3295 6.29827 18.4481 6 18.4484H4.5C4.20173 18.4481 3.91577 18.3295 3.70486 18.1186C3.49395 17.9077 3.37532 17.6217 3.375 17.3234V12.4484H6ZM19.6365 18.4484H18.1365C17.8382 18.4481 17.5523 18.3295 17.3414 18.1186C17.1305 17.9077 17.0118 17.6217 17.0115 17.3234V13.5734C17.0118 13.2752 17.1305 12.9892 17.3414 12.7783C17.5523 12.5674 17.8382 12.4488 18.1365 12.4484H20.7615V17.3234C20.7612 17.6217 20.6425 17.9077 20.4316 18.1186C20.2207 18.3295 19.9348 18.4481 19.6365 18.4484Z" fill="white"/>
</svg>
