<svg width="17" height="17" viewBox="0 0 17 17" fill="none" xmlns="http://www.w3.org/2000/svg">
<path fill-rule="evenodd" clip-rule="evenodd" d="M7.21675 14.0166C3.46121 14.0166 0.416748 10.9722 0.416748 7.21663C0.416748 3.46109 3.46121 0.416626 7.21675 0.416626C10.9723 0.416626 14.0167 3.46109 14.0167 7.21663C14.0167 8.80613 13.4714 10.2683 12.5576 11.4261L16.1824 15.051C16.4948 15.3634 16.4948 15.8699 16.1824 16.1823C15.87 16.4947 15.3635 16.4947 15.051 16.1823L11.4262 12.5575C10.2683 13.4713 8.80624 14.0166 7.21675 14.0166ZM10.945 10.8417C10.9264 10.8571 10.9084 10.8736 10.891 10.891C10.8737 10.9083 10.8572 10.9263 10.8418 10.9449C9.90516 11.8557 8.62651 12.4166 7.21684 12.4166C4.34496 12.4166 2.01684 10.0885 2.01684 7.21661C2.01684 4.34473 4.34496 2.01661 7.21684 2.01661C10.0887 2.01661 12.4168 4.34473 12.4168 7.21661C12.4168 8.62634 11.8559 9.90505 10.945 10.8417Z" fill="#151522" fill-opacity="0.8"/>
<path d="M12.5576 11.4261L12.3613 11.2712L12.2236 11.4457L12.3808 11.6029L12.5576 11.4261ZM16.1824 15.051L16.3592 14.8742L16.3592 14.8742L16.1824 15.051ZM16.1824 16.1823L16.3592 16.3591L16.3592 16.3591L16.1824 16.1823ZM15.051 16.1823L14.8743 16.3591L14.8743 16.3591L15.051 16.1823ZM11.4262 12.5575L11.603 12.3807L11.4458 12.2235L11.2713 12.3612L11.4262 12.5575ZM10.945 10.8417L11.1051 11.0337L11.1151 11.0253L11.1242 11.016L10.945 10.8417ZM10.8418 10.9449L11.0161 11.1241L11.0254 11.115L11.0338 11.105L10.8418 10.9449ZM0.166748 7.21663C0.166748 11.1102 3.32314 14.2666 7.21675 14.2666V13.7666C3.59928 13.7666 0.666748 10.8341 0.666748 7.21663H0.166748ZM7.21675 0.166626C3.32314 0.166626 0.166748 3.32302 0.166748 7.21663H0.666748C0.666748 3.59916 3.59928 0.666626 7.21675 0.666626V0.166626ZM14.2667 7.21663C14.2667 3.32302 11.1104 0.166626 7.21675 0.166626V0.666626C10.8342 0.666626 13.7667 3.59916 13.7667 7.21663H14.2667ZM12.7538 11.581C13.7012 10.3806 14.2667 8.86431 14.2667 7.21663H13.7667C13.7667 8.74795 13.2416 10.1559 12.3613 11.2712L12.7538 11.581ZM16.3592 14.8742L12.7343 11.2493L12.3808 11.6029L16.0056 15.2277L16.3592 14.8742ZM16.3592 16.3591C16.7692 15.9491 16.7692 15.2842 16.3592 14.8742L16.0056 15.2277C16.2204 15.4425 16.2204 15.7908 16.0056 16.0056L16.3592 16.3591ZM14.8743 16.3591C15.2843 16.7692 15.9491 16.7692 16.3592 16.3591L16.0056 16.0056C15.7908 16.2203 15.4426 16.2203 15.2278 16.0056L14.8743 16.3591ZM11.2494 12.7342L14.8743 16.3591L15.2278 16.0056L11.603 12.3807L11.2494 12.7342ZM7.21675 14.2666C8.86442 14.2666 10.3807 13.7011 11.5811 12.7537L11.2713 12.3612C10.156 13.2415 8.74805 13.7666 7.21675 13.7666V14.2666ZM10.7848 10.6497C10.7605 10.67 10.737 10.6915 10.7143 10.7142L11.0678 11.0677C11.0799 11.0557 11.0923 11.0443 11.1051 11.0337L10.7848 10.6497ZM10.7143 10.7142C10.6916 10.7369 10.6701 10.7604 10.6498 10.7847L11.0338 11.105C11.0444 11.0922 11.0558 11.0798 11.0678 11.0677L10.7143 10.7142ZM10.6675 10.7656C9.77565 11.6329 8.55883 12.1666 7.21684 12.1666V12.6666C8.69419 12.6666 10.0347 12.0785 11.0161 11.1241L10.6675 10.7656ZM7.21684 12.1666C4.48303 12.1666 2.26684 9.95042 2.26684 7.21661H1.76684C1.76684 10.2266 4.20689 12.6666 7.21684 12.6666V12.1666ZM2.26684 7.21661C2.26684 4.4828 4.48303 2.26661 7.21684 2.26661V1.76661C4.20689 1.76661 1.76684 4.20666 1.76684 7.21661H2.26684ZM7.21684 2.26661C9.95065 2.26661 12.1668 4.4828 12.1668 7.21661H12.6668C12.6668 4.20666 10.2268 1.76661 7.21684 1.76661V2.26661ZM12.1668 7.21661C12.1668 8.55866 11.6331 9.77553 10.7657 10.6674L11.1242 11.016C12.0786 10.0346 12.6668 8.69403 12.6668 7.21661H12.1668Z" fill="#151522" fill-opacity="0.8"/>
</svg>
