<svg width="24" height="25" viewBox="0 0 24 25" fill="none" xmlns="http://www.w3.org/2000/svg">
<path d="M6 2.61469L3 6.61469V20.6147C3 21.1451 3.21071 21.6538 3.58579 22.0289C3.96086 22.404 4.46957 22.6147 5 22.6147H19C19.5304 22.6147 20.0391 22.404 20.4142 22.0289C20.7893 21.6538 21 21.1451 21 20.6147V6.61469L18 2.61469H6Z" stroke="white" stroke-linecap="round" stroke-linejoin="round"/>
<path d="M3 6.61469H21" stroke="white" stroke-linecap="round" stroke-linejoin="round"/>
<path d="M16 10.6147C16 11.6756 15.5786 12.693 14.8284 13.4431C14.0783 14.1933 13.0609 14.6147 12 14.6147C10.9391 14.6147 9.92172 14.1933 9.17157 13.4431C8.42143 12.693 8 11.6756 8 10.6147" stroke="white" stroke-linecap="round" stroke-linejoin="round"/>
</svg>
