<svg width="29" height="29" viewBox="0 0 29 29" fill="none" xmlns="http://www.w3.org/2000/svg">
<path d="M11.7727 24.0735C12.2748 24.0735 12.6818 23.6471 12.6818 23.1211C12.6818 22.5951 12.2748 22.1687 11.7727 22.1687C11.2707 22.1687 10.8636 22.5951 10.8636 23.1211C10.8636 23.6471 11.2707 24.0735 11.7727 24.0735Z" stroke="white" stroke-linecap="round" stroke-linejoin="round"/>
<path d="M21.7727 24.0735C22.2748 24.0735 22.6818 23.6471 22.6818 23.1211C22.6818 22.5951 22.2748 22.1687 21.7727 22.1687C21.2707 22.1687 20.8636 22.5951 20.8636 23.1211C20.8636 23.6471 21.2707 24.0735 21.7727 24.0735Z" stroke="white" stroke-linecap="round" stroke-linejoin="round"/>
<path d="M4.5 4.07343H8.13636L10.5727 16.8258C10.6559 17.2643 10.8836 17.6581 11.216 17.9385C11.5483 18.2188 11.9643 18.3677 12.3909 18.3591H21.2273C21.6539 18.3677 22.0698 18.2188 22.4022 17.9385C22.7346 17.6581 22.9623 17.2643 23.0455 16.8258L24.5 8.83533H9.04545" stroke="white" stroke-linecap="round" stroke-linejoin="round"/>
</svg>
