<svg width="28" height="12" viewBox="0 0 28 12" fill="none" xmlns="http://www.w3.org/2000/svg">
<path d="M5.12329 6.87646C4.59106 7.35498 3.99536 7.59424 3.33618 7.59424C2.36938 7.59424 1.60278 7.26709 1.03638 6.61279C0.469971 5.9585 0.186768 5.08447 0.186768 3.99072C0.186768 3.30713 0.345459 2.67236 0.662842 2.08643C0.980225 1.50049 1.42456 1.03662 1.99585 0.694824C2.57202 0.353027 3.20679 0.182129 3.90015 0.182129C4.60327 0.182129 5.23804 0.360352 5.80444 0.716797C6.37573 1.06836 6.82007 1.56885 7.13745 2.21826C7.45483 2.86279 7.61841 3.60742 7.62817 4.45215V5.39697C7.62817 6.57373 7.39624 7.59424 6.93237 8.4585C6.47339 9.32275 5.81665 9.98682 4.96216 10.4507C4.10767 10.9146 3.11157 11.1465 1.97388 11.1465H1.82007V9.16895L2.28882 9.16162C3.98804 9.07861 4.93286 8.31689 5.12329 6.87646ZM4.00269 5.81445C4.53979 5.81445 4.92554 5.58252 5.15991 5.11865V4.09326C5.15991 3.40967 5.04517 2.9043 4.81567 2.57715C4.58618 2.25 4.27612 2.08643 3.8855 2.08643C3.53882 2.08643 3.24829 2.27197 3.01392 2.64307C2.77954 3.01416 2.66235 3.46338 2.66235 3.99072C2.66235 4.54736 2.78198 4.9917 3.02124 5.32373C3.2605 5.65088 3.58765 5.81445 4.00269 5.81445ZM10.5212 8.60498C10.9119 8.60498 11.2366 8.72217 11.4954 8.95654C11.7542 9.18604 11.8835 9.48145 11.8835 9.84277C11.8835 10.2041 11.7542 10.502 11.4954 10.7363C11.2366 10.9658 10.9119 11.0806 10.5212 11.0806C10.1257 11.0806 9.79858 10.9634 9.53979 10.729C9.28589 10.4946 9.15894 10.1992 9.15894 9.84277C9.15894 9.48633 9.28589 9.19092 9.53979 8.95654C9.79858 8.72217 10.1257 8.60498 10.5212 8.60498ZM10.5212 2.76025C10.9119 2.76025 11.2366 2.87744 11.4954 3.11182C11.7542 3.34131 11.8835 3.63672 11.8835 3.99805C11.8835 4.35938 11.7542 4.65723 11.4954 4.8916C11.2366 5.12109 10.9119 5.23584 10.5212 5.23584C10.1257 5.23584 9.79858 5.11865 9.53979 4.88428C9.28589 4.6499 9.15894 4.35449 9.15894 3.99805C9.15894 3.6416 9.28589 3.34619 9.53979 3.11182C9.79858 2.87744 10.1257 2.76025 10.5212 2.76025ZM19.9768 6.83252H21.0608V8.73682H19.9768V11H17.5085V8.73682H13.385L13.2385 7.22803L17.5085 0.35791V0.335938H19.9768V6.83252ZM15.5896 6.83252H17.5085V3.55127L17.3547 3.80029L15.5896 6.83252ZM27.616 11H25.1404V3.11914L22.7087 3.82959V1.95459L27.3889 0.335938H27.616V11Z" fill="#151522"/>
</svg>
