<svg width="16" height="12" viewBox="0 0 16 12" fill="none" xmlns="http://www.w3.org/2000/svg">
<path fill-rule="evenodd" clip-rule="evenodd" d="M8.3004 2.41056C10.5348 2.41065 12.6838 3.26921 14.3031 4.80877C14.4251 4.92763 14.62 4.92613 14.7401 4.8054L15.9058 3.62899C15.9666 3.56776 16.0005 3.48482 16 3.39852C15.9995 3.31223 15.9646 3.22969 15.9031 3.16918C11.6527 -0.90413 4.94737 -0.90413 0.697047 3.16918C0.635477 3.22965 0.600547 3.31216 0.599983 3.39845C0.599408 3.48475 0.633259 3.56771 0.694022 3.62899L1.86003 4.8054C1.98004 4.92631 2.17511 4.92781 2.29698 4.80877C3.91655 3.26911 6.06577 2.41055 8.3004 2.41056V2.41056ZM8.3004 6.23794C9.52806 6.23787 10.7119 6.69418 11.6219 7.51822C11.745 7.63517 11.9389 7.63263 12.0589 7.51251L13.2232 6.33609C13.2845 6.27438 13.3185 6.19067 13.3177 6.10369C13.3168 6.0167 13.281 5.9337 13.2185 5.87325C10.4473 3.29551 6.15582 3.29551 3.38466 5.87325C3.32206 5.9337 3.28635 6.01674 3.28553 6.10376C3.2847 6.19077 3.31885 6.27447 3.38028 6.33609L4.54427 7.51251C4.66425 7.63263 4.85814 7.63517 4.98122 7.51822C5.89063 6.69473 7.07354 6.23845 8.3004 6.23794V6.23794ZM10.5379 9.04554C10.6002 8.98443 10.6345 8.90033 10.6327 8.8131C10.6309 8.72587 10.5932 8.64324 10.5285 8.58473C9.2423 7.49683 7.35849 7.49683 6.07226 8.58473C6.00751 8.6432 5.96974 8.7258 5.9679 8.81303C5.96605 8.90026 6.00029 8.98439 6.06251 9.04554L8.07688 11.0781C8.13592 11.1378 8.2164 11.1714 8.3004 11.1714C8.38439 11.1714 8.46487 11.1378 8.52391 11.0781L10.5379 9.04554Z" fill="white"/>
</svg>
